<svg width="139" height="49" viewBox="0 0 139 49" fill="none" xmlns="http://www.w3.org/2000/svg">
<path d="M15.2706 30V19.8182H17.7017V23.6712H17.7514C17.8509 23.4392 17.9917 23.2154 18.174 23C18.3596 22.7846 18.5949 22.6089 18.88 22.473C19.1683 22.3338 19.513 22.2642 19.9141 22.2642C20.4444 22.2642 20.9399 22.4034 21.4006 22.6818C21.8646 22.9602 22.2391 23.3894 22.5241 23.9695C22.8092 24.5495 22.9517 25.2886 22.9517 26.1868C22.9517 27.0518 22.8142 27.776 22.5391 28.3594C22.2673 28.9427 21.8994 29.3802 21.4354 29.6719C20.9747 29.9635 20.4626 30.1094 19.8991 30.1094C19.5147 30.1094 19.1816 30.0464 18.8999 29.9205C18.6181 29.7945 18.3812 29.6288 18.1889 29.4233C18 29.2178 17.8542 28.9974 17.7514 28.7621H17.6768V30H15.2706ZM17.652 26.1818C17.652 26.5928 17.7067 26.9508 17.8161 27.2557C17.9287 27.5606 18.0895 27.7976 18.2983 27.9666C18.5104 28.1323 18.764 28.2152 19.0589 28.2152C19.3572 28.2152 19.6108 28.1323 19.8196 27.9666C20.0284 27.7976 20.1858 27.5606 20.2919 27.2557C20.4013 26.9508 20.456 26.5928 20.456 26.1818C20.456 25.7708 20.4013 25.4145 20.2919 25.1129C20.1858 24.8113 20.0284 24.5777 19.8196 24.4119C19.6141 24.2462 19.3606 24.1634 19.0589 24.1634C18.7607 24.1634 18.5071 24.2446 18.2983 24.407C18.0895 24.5694 17.9287 24.8014 17.8161 25.103C17.7067 25.4046 17.652 25.7642 17.652 26.1818ZM26.3784 30.1293C25.8912 30.1293 25.4586 30.0481 25.0808 29.8857C24.7063 29.7199 24.4096 29.4714 24.1909 29.1399C23.9754 28.8052 23.8677 28.3859 23.8677 27.8821C23.8677 27.4579 23.9423 27.0999 24.0914 26.8082C24.2406 26.5166 24.4461 26.2796 24.7079 26.0973C24.9698 25.915 25.2714 25.7775 25.6127 25.6847C25.9541 25.5885 26.3187 25.5239 26.7065 25.4908C27.1407 25.451 27.4904 25.4096 27.7555 25.3665C28.0207 25.3201 28.2129 25.2554 28.3322 25.1726C28.4548 25.0864 28.5162 24.9654 28.5162 24.8097V24.7848C28.5162 24.5296 28.4283 24.3324 28.2527 24.1932C28.077 24.054 27.84 23.9844 27.5417 23.9844C27.2202 23.9844 26.9617 24.054 26.7662 24.1932C26.5706 24.3324 26.4463 24.5246 26.3933 24.7699L24.1511 24.6903C24.2174 24.2263 24.3881 23.812 24.6632 23.4474C24.9416 23.0795 25.3227 22.7912 25.8066 22.5824C26.2939 22.3703 26.8788 22.2642 27.5616 22.2642C28.0488 22.2642 28.4979 22.3222 28.9089 22.4382C29.3199 22.5509 29.6779 22.7166 29.9828 22.9354C30.2877 23.1508 30.523 23.416 30.6887 23.7308C30.8578 24.0457 30.9423 24.4053 30.9423 24.8097V30H28.6554V28.9361H28.5957C28.4598 29.1946 28.2858 29.4134 28.0737 29.5923C27.8649 29.7713 27.618 29.9055 27.3329 29.995C27.0512 30.0845 26.733 30.1293 26.3784 30.1293ZM27.1291 28.5384C27.3909 28.5384 27.6262 28.4853 27.835 28.3793C28.0472 28.2732 28.2162 28.1274 28.3422 27.9418C28.4681 27.7528 28.5311 27.5341 28.5311 27.2855V26.5597C28.4615 26.5961 28.377 26.6293 28.2775 26.6591C28.1814 26.6889 28.0753 26.7171 27.9593 26.7436C27.8433 26.7701 27.724 26.7933 27.6014 26.8132C27.4788 26.8331 27.3611 26.8513 27.2484 26.8679C27.0197 26.9044 26.8242 26.9607 26.6618 27.0369C26.5027 27.1132 26.38 27.2126 26.2939 27.3352C26.211 27.4545 26.1696 27.5971 26.1696 27.7628C26.1696 28.0147 26.2591 28.2069 26.438 28.3395C26.6203 28.4721 26.8507 28.5384 27.1291 28.5384ZM35.9934 30.1442C35.188 30.1442 34.497 29.9785 33.9203 29.647C33.3469 29.3156 32.9061 28.8549 32.5978 28.2649C32.2896 27.6716 32.1355 26.9856 32.1355 26.2067C32.1355 25.4245 32.2896 24.7384 32.5978 24.1484C32.9094 23.5552 33.3519 23.0928 33.9252 22.7614C34.502 22.4299 35.1897 22.2642 35.9885 22.2642C36.6944 22.2642 37.3092 22.3918 37.8329 22.647C38.3599 22.9022 38.7709 23.2635 39.0659 23.7308C39.3642 24.1948 39.5216 24.7401 39.5382 25.3665H37.2662C37.2198 24.9754 37.0872 24.6688 36.8684 24.4467C36.653 24.2247 36.3713 24.1136 36.0233 24.1136C35.7415 24.1136 35.4946 24.1932 35.2825 24.3523C35.0704 24.508 34.9047 24.7401 34.7853 25.0483C34.6693 25.3532 34.6113 25.7311 34.6113 26.1818C34.6113 26.6326 34.6693 27.0137 34.7853 27.3253C34.9047 27.6335 35.0704 27.8672 35.2825 28.0263C35.4946 28.1821 35.7415 28.2599 36.0233 28.2599C36.2486 28.2599 36.4475 28.2119 36.6199 28.1158C36.7955 28.0196 36.9397 27.8788 37.0524 27.6932C37.1651 27.5043 37.2363 27.2756 37.2662 27.0071H39.5382C39.515 27.6368 39.3575 28.187 39.0659 28.6577C38.7775 29.1283 38.3715 29.4946 37.8478 29.7564C37.3275 30.0149 36.7093 30.1442 35.9934 30.1442ZM42.9748 27.9964L42.9847 25.098H43.3228L45.4705 22.3636H48.2248L45.033 26.2812H44.3917L42.9748 27.9964ZM40.7823 30V19.8182H43.2134V30H40.7823ZM45.5252 30L43.5266 26.8281L45.1275 25.103L48.3342 30H45.5252ZM56.413 22.3636V24.1534H51.5955V22.3636H56.413ZM52.6048 20.5341H55.0359V27.5987C55.0359 27.7479 55.0591 27.8688 55.1055 27.9616C55.1552 28.0511 55.2264 28.1158 55.3192 28.1555C55.4121 28.192 55.5231 28.2102 55.6523 28.2102C55.7451 28.2102 55.8429 28.2019 55.9457 28.1854C56.0517 28.1655 56.1313 28.1489 56.1843 28.1357L56.5522 29.8906C56.4362 29.9238 56.2721 29.9652 56.06 30.0149C55.8512 30.0646 55.601 30.0961 55.3093 30.1094C54.7392 30.1359 54.2504 30.0696 53.8427 29.9105C53.4383 29.7481 53.1284 29.4962 52.913 29.1548C52.7009 28.8134 52.5981 28.3842 52.6048 27.8672V20.5341ZM61.136 30.1442C60.3339 30.1442 59.6445 29.9801 59.0678 29.652C58.4944 29.3205 58.052 28.8598 57.7404 28.2699C57.4322 27.6766 57.2781 26.9889 57.2781 26.2067C57.2781 25.4212 57.4322 24.7334 57.7404 24.1435C58.052 23.5502 58.4944 23.0895 59.0678 22.7614C59.6445 22.4299 60.3339 22.2642 61.136 22.2642C61.9381 22.2642 62.6258 22.4299 63.1992 22.7614C63.7759 23.0895 64.2184 23.5502 64.5266 24.1435C64.8382 24.7334 64.994 25.4212 64.994 26.2067C64.994 26.9889 64.8382 27.6766 64.5266 28.2699C64.2184 28.8598 63.7759 29.3205 63.1992 29.652C62.6258 29.9801 61.9381 30.1442 61.136 30.1442ZM61.1509 28.3097C61.4426 28.3097 61.6895 28.2202 61.8917 28.0412C62.0939 27.8622 62.248 27.6136 62.354 27.2955C62.4634 26.9773 62.5181 26.6094 62.5181 26.1918C62.5181 25.7675 62.4634 25.3963 62.354 25.0781C62.248 24.7599 62.0939 24.5114 61.8917 24.3324C61.6895 24.1534 61.4426 24.0639 61.1509 24.0639C60.8493 24.0639 60.5941 24.1534 60.3853 24.3324C60.1798 24.5114 60.0224 24.7599 59.913 25.0781C59.8069 25.3963 59.7539 25.7675 59.7539 26.1918C59.7539 26.6094 59.8069 26.9773 59.913 27.2955C60.0224 27.6136 60.1798 27.8622 60.3853 28.0412C60.5941 28.2202 60.8493 28.3097 61.1509 28.3097ZM71.6783 25.6449V30H69.2472V19.8182H71.5987V23.7656H71.6832C71.8556 23.295 72.1373 22.9271 72.5284 22.6619C72.9228 22.3968 73.4051 22.2642 73.9751 22.2642C74.5121 22.2642 74.9794 22.3835 75.3771 22.6222C75.7749 22.8575 76.0831 23.1906 76.3018 23.6214C76.5239 24.0523 76.6333 24.5561 76.63 25.1328V30H74.1989V25.6101C74.2022 25.1858 74.0961 24.8544 73.8807 24.6158C73.6652 24.3771 73.362 24.2578 72.9709 24.2578C72.7157 24.2578 72.4903 24.3142 72.2947 24.4268C72.1025 24.5362 71.9517 24.6937 71.8423 24.8991C71.7363 25.1046 71.6816 25.3532 71.6783 25.6449ZM81.7122 30.1442C80.9101 30.1442 80.2207 29.9801 79.644 29.652C79.0706 29.3205 78.6281 28.8598 78.3166 28.2699C78.0083 27.6766 77.8542 26.9889 77.8542 26.2067C77.8542 25.4212 78.0083 24.7334 78.3166 24.1435C78.6281 23.5502 79.0706 23.0895 79.644 22.7614C80.2207 22.4299 80.9101 22.2642 81.7122 22.2642C82.5143 22.2642 83.202 22.4299 83.7754 22.7614C84.3521 23.0895 84.7946 23.5502 85.1028 24.1435C85.4144 24.7334 85.5701 25.4212 85.5701 26.2067C85.5701 26.9889 85.4144 27.6766 85.1028 28.2699C84.7946 28.8598 84.3521 29.3205 83.7754 29.652C83.202 29.9801 82.5143 30.1442 81.7122 30.1442ZM81.7271 28.3097C82.0188 28.3097 82.2657 28.2202 82.4679 28.0412C82.67 27.8622 82.8242 27.6136 82.9302 27.2955C83.0396 26.9773 83.0943 26.6094 83.0943 26.1918C83.0943 25.7675 83.0396 25.3963 82.9302 25.0781C82.8242 24.7599 82.67 24.5114 82.4679 24.3324C82.2657 24.1534 82.0188 24.0639 81.7271 24.0639C81.4255 24.0639 81.1703 24.1534 80.9615 24.3324C80.756 24.5114 80.5985 24.7599 80.4892 25.0781C80.3831 25.3963 80.3301 25.7675 80.3301 26.1918C80.3301 26.6094 80.3831 26.9773 80.4892 27.2955C80.5985 27.6136 80.756 27.8622 80.9615 28.0412C81.1703 28.2202 81.4255 28.3097 81.7271 28.3097ZM86.8155 30V22.3636H89.1273V23.7656H89.2118C89.3709 23.3016 89.6394 22.9354 90.0172 22.6669C90.3951 22.3984 90.8458 22.2642 91.3695 22.2642C91.8998 22.2642 92.3539 22.4001 92.7317 22.6719C93.1096 22.9437 93.3498 23.3082 93.4526 23.7656H93.5321C93.6747 23.3116 93.9531 22.9486 94.3674 22.6768C94.7817 22.4018 95.2705 22.2642 95.834 22.2642C96.5565 22.2642 97.1432 22.4962 97.5939 22.9602C98.0447 23.4209 98.2701 24.054 98.2701 24.8594V30H95.839V25.4162C95.839 25.035 95.7412 24.745 95.5456 24.5462C95.3501 24.344 95.0965 24.2429 94.785 24.2429C94.4502 24.2429 94.1867 24.3523 93.9945 24.571C93.8056 24.7865 93.7111 25.0765 93.7111 25.4411V30H91.3745V25.3913C91.3745 25.0367 91.2784 24.7566 91.0861 24.5511C90.8939 24.3456 90.6403 24.2429 90.3255 24.2429C90.1133 24.2429 89.9261 24.2943 89.7637 24.397C89.6013 24.4964 89.4737 24.639 89.3809 24.8246C89.2914 25.0102 89.2466 25.2289 89.2466 25.4808V30H86.8155ZM103.346 30.1442C102.547 30.1442 101.858 29.9867 101.278 29.6719C100.701 29.3537 100.257 28.9013 99.9455 28.3146C99.6373 27.7247 99.4831 27.0237 99.4831 26.2116C99.4831 25.4228 99.6389 24.7334 99.9505 24.1435C100.262 23.5502 100.701 23.0895 101.268 22.7614C101.835 22.4299 102.503 22.2642 103.271 22.2642C103.815 22.2642 104.312 22.3487 104.763 22.5178C105.214 22.6868 105.603 22.937 105.931 23.2685C106.259 23.5999 106.515 24.0092 106.697 24.4964C106.879 24.9804 106.97 25.5355 106.97 26.1619V26.7685H100.333V25.3565H104.708C104.705 25.098 104.644 24.8677 104.524 24.6655C104.405 24.4633 104.241 24.3059 104.032 24.1932C103.827 24.0772 103.59 24.0192 103.321 24.0192C103.049 24.0192 102.806 24.0805 102.59 24.2031C102.375 24.3224 102.204 24.4865 102.078 24.6953C101.952 24.9008 101.886 25.1345 101.879 25.3963V26.8331C101.879 27.1446 101.941 27.4181 102.063 27.6534C102.186 27.8854 102.36 28.0661 102.585 28.1953C102.811 28.3246 103.079 28.3892 103.391 28.3892C103.606 28.3892 103.802 28.3594 103.977 28.2997C104.153 28.2401 104.304 28.1522 104.43 28.0362C104.556 27.9202 104.65 27.7777 104.713 27.6087L106.945 27.6733C106.853 28.1738 106.649 28.6096 106.334 28.9808C106.022 29.3487 105.613 29.6354 105.106 29.8409C104.599 30.0431 104.012 30.1442 103.346 30.1442ZM117.235 30.7408L115.953 29.468L118.941 26.4801H112.199V24.6108H118.941L115.953 21.6278L117.235 20.3501L122.431 25.5455L117.235 30.7408Z" fill="#170F0F"/>
<path d="M14.5 32.7841H123.813V33.7386H14.5V32.7841Z" fill="#170F0F"/>
</svg>
