<svg width="40" height="40" viewBox="0 0 40 40" fill="none" xmlns="http://www.w3.org/2000/svg">
<path fill-rule="evenodd" clip-rule="evenodd" d="M5 0C2.23858 0 0 2.23858 0 5V35C0 37.7614 2.23858 40 5 40H35C37.7614 40 40 37.7614 40 35V5C40 2.23858 37.7614 0 35 0H5ZM25.0055 16.5857C25.0055 18.9532 27.9821 19.9929 29.4579 18.1515C29.7956 17.7381 30.3834 17.6755 30.7962 17.9887C33.8103 20.1558 35.5863 24.0391 34.8234 28.1353C34.2981 30.9413 32.5471 33.3339 30.1833 34.7745C31.0588 33.4968 31.459 31.8934 31.1464 30.1897C30.9212 28.8995 30.2208 27.747 29.2953 26.8326L25.881 23.4629C25.3932 22.9868 24.6178 22.9868 24.13 23.4629L20.7406 26.8075C19.7901 27.7345 19.0897 28.912 18.8521 30.2148C18.7061 31.012 18.7205 31.8304 18.8944 32.622C19.0684 33.4136 19.3984 34.1625 19.8652 34.8246C16.9511 33.0834 15 29.8891 15 26.2313C15 19.9303 20.1528 15.571 23.0669 13.6168C23.8924 13.0656 25.0055 13.6669 25.0055 14.6691V16.5857ZM22.4666 28.6114L25.0055 26.106L27.5444 28.6239C28.1322 29.1876 28.5699 29.9141 28.7075 30.7158C29.0827 33.0082 27.2817 35 25.0055 35C22.7292 35 20.9282 33.0082 21.3035 30.7033C21.441 29.9016 21.8913 29.1876 22.4666 28.6114Z" fill="#170F0F"/>
</svg>
